<?xml version="1.0" encoding="UTF-8"?><svg id="Warstwa_1" xmlns="http://www.w3.org/2000/svg" xmlns:xlink="http://www.w3.org/1999/xlink" viewBox="0 0 54 54"><defs><style>.cls-1{fill:#3763f4;}.cls-2{fill:#fff;}.cls-3{fill:#3763f4;}.cls-4{clip-path:url(#clippath);}.cls-5{fill:none;}</style><clipPath id="clippath"><rect class="cls-5" width="54" height="54"/></clipPath></defs><g class="cls-4"><path class="cls-3" d="M52.63,30.39c-.4,.05-.81,.09-1.24,.09-3.88,0-7.16-2.54-8.29-6.04-.2-.6-.68-1.06-1.3-1.17-6.44-1.23-11.31-6.88-11.31-13.68,0-2.86,.86-5.51,2.34-7.71,.35-.52,.05-1.23-.56-1.35-1.71-.35-3.46-.52-5.26-.52C12.09,0,0,12.09,0,27s12.09,27,27,27c13.44,0,24.56-9.78,26.64-22.63,.1-.59-.43-1.06-1.01-.98Z"/><path class="cls-1" d="M14.81,21.77c1.93,0,3.49-1.56,3.49-3.49s-1.56-3.49-3.49-3.49-3.49,1.56-3.49,3.49,1.56,3.49,3.49,3.49Z"/><path class="cls-1" d="M16.55,38.32c1.44,0,2.61-1.17,2.61-2.61s-1.17-2.61-2.61-2.61-2.61,1.17-2.61,2.61,1.17,2.61,2.61,2.61Z"/><path class="cls-1" d="M38.21,7.06l-.25,1.5c-.21,1.23,.49,2.43,1.66,2.88l2.22,.83c1.46,.54,3.07-.3,3.46-1.81l.79-3.15c.49-1.97-1.35-3.72-3.28-3.14l-2.75,.83c-.97,.28-1.68,1.09-1.85,2.08Z"/><path class="cls-1" d="M47.04,16.55l-1.05,.52c-.83,.41-1.18,1.4-.83,2.25l.85,1.98c.51,1.2,2.11,1.42,2.94,.42l1.36-1.63c.64-.77,.5-1.91-.29-2.51l-1.15-.87c-.53-.39-1.24-.46-1.83-.16Z"/><path class="cls-1" d="M52.26,13.06c.96,0,1.74-.78,1.74-1.74s-.78-1.74-1.74-1.74-1.74,.78-1.74,1.74,.78,1.74,1.74,1.74Z"/><path class="cls-3" d="M30.27,50.73c-14.91,0-27-12.09-27-27,0-6.63,2.39-12.69,6.35-17.38C3.74,11.3,0,18.71,0,27c0,14.91,12.09,27,27,27,8.29,0,15.7-3.73,20.64-9.6-4.69,3.95-10.76,6.33-17.37,6.33Z"/><path class="cls-3" d="M42.22,10.25c-1.46-.54-2.33-2.05-2.08-3.6l.29-1.78-.41,.12c-.96,.28-1.66,1.09-1.83,2.08l-.25,1.5c-.21,1.23,.49,2.43,1.66,2.88l2.22,.83c1.17,.43,2.43-.03,3.09-1.01l-2.69-1.01Z"/><path class="cls-3" d="M47.86,20.17l-.96-2.24c-.18-.42-.2-.87-.09-1.28l-.84,.42c-.83,.41-1.18,1.4-.83,2.25l.85,1.98c.51,1.2,2.11,1.42,2.94,.42l.34-.4c-.6-.12-1.15-.51-1.42-1.15Z"/><path class="cls-2" d="M16.66,19.93c-1.92,0-3.49-1.56-3.49-3.49,0-.48,.1-.95,.27-1.36-1.25,.53-2.13,1.77-2.13,3.21,0,1.92,1.56,3.49,3.49,3.49,1.45,0,2.68-.88,3.21-2.13-.4,.18-.87,.28-1.35,.28Z"/><path class="cls-2" d="M17.91,36.96c-1.45,0-2.61-1.17-2.61-2.61,0-.37,.08-.72,.22-1.03-.92,.4-1.58,1.33-1.58,2.4,0,1.44,1.17,2.61,2.61,2.61,1.08,0,2-.65,2.4-1.58-.33,.13-.67,.21-1.04,.21Z"/><path class="cls-1" d="M33.1,41.81c1.93,0,3.49-1.56,3.49-3.49s-1.56-3.49-3.49-3.49-3.49,1.56-3.49,3.49,1.56,3.49,3.49,3.49Z"/><path class="cls-2" d="M34.94,39.95c-1.92,0-3.49-1.56-3.49-3.49,0-.48,.1-.95,.27-1.36-1.25,.53-2.13,1.77-2.13,3.21,0,1.92,1.56,3.49,3.49,3.49,1.45,0,2.68-.88,3.21-2.13-.4,.18-.86,.28-1.35,.28Z"/><path class="cls-1" d="M27.81,22.93c.15-.95-.49-1.84-1.44-1.99-.95-.15-1.84,.49-1.99,1.44-.15,.95,.49,1.84,1.44,1.99,.95,.15,1.84-.49,1.99-1.44Z"/><path class="cls-2" d="M42.68,35.65c.12,0,.25-.03,.36-.09,.4-.21,.56-.7,.37-1.1l-.87-1.74c-.21-.4-.7-.57-1.1-.37-.4,.21-.56,.7-.37,1.1l.87,1.74c.15,.29,.43,.46,.74,.46Z"/><path class="cls-2" d="M33.1,30.42c.12,0,.25-.03,.36-.09l1.74-.87c.4-.21,.57-.7,.37-1.1-.21-.4-.7-.56-1.1-.37l-1.74,.87c-.4,.21-.57,.7-.37,1.1,.15,.29,.45,.46,.74,.46Z"/><path class="cls-2" d="M8.86,28.24c.14,.28,.43,.45,.73,.45,.12,0,.25-.03,.36-.09,.4-.21,.57-.7,.37-1.1l-.87-1.74c-.21-.4-.7-.57-1.1-.37-.4,.21-.56,.7-.37,1.1l.88,1.75Z"/><path class="cls-2" d="M22.28,41.95l-1.74,.87c-.4,.21-.57,.7-.37,1.1,.14,.28,.43,.45,.73,.45,.12,0,.25-.03,.36-.09l1.74-.87c.4-.21,.57-.7,.37-1.1-.2-.4-.68-.57-1.09-.36Z"/><path class="cls-2" d="M23.22,9.01l-.87-.87c-.32-.32-.84-.32-1.15,0-.32,.32-.32,.84,0,1.15l.87,.87c.16,.16,.37,.24,.58,.24s.41-.08,.58-.24c.33-.32,.33-.84,0-1.15Z"/><path class="cls-2" d="M19.46,28.16c-.32,.32-.32,.84,0,1.15l.87,.87c.16,.16,.37,.24,.58,.24s.41-.08,.58-.24c.32-.32,.32-.84,0-1.15l-.87-.87c-.33-.32-.84-.32-1.15,0Z"/><path class="cls-2" d="M29.67,47.04v.87c0,.45,.37,.81,.81,.81s.81-.37,.81-.81v-.87c0-.45-.37-.81-.81-.81s-.81,.36-.81,.81Z"/><path class="cls-2" d="M25.84,15.39l.87-.87c.32-.32,.32-.84,0-1.15-.32-.32-.84-.32-1.15,0l-.87,.87c-.32,.32-.32,.84,0,1.15,.16,.16,.37,.24,.58,.24s.41-.09,.58-.24Z"/></g></svg>