<?xml version="1.0" encoding="UTF-8"?><svg id="a" xmlns="http://www.w3.org/2000/svg" viewBox="0 0 512 512"><defs><style>.b{fill:#fff;}.b,.c{stroke-width:0px;}.c{fill:#3763f4;}</style></defs><circle class="c" cx="256" cy="256" r="256"/><path class="b" d="m416.19,347.54c0,12.64-10.25,22.88-22.88,22.88H118.69c-12.64,0-22.88-10.25-22.88-22.88v-137.31c0-12.64,10.25-22.88,22.88-22.88h26.82c18.2,0,35.65-7.25,48.52-20.12l18.99-18.95c4.28-4.28,10.08-6.69,16.13-6.71h53.64c6.07,0,11.89,2.41,16.18,6.71l18.95,18.95c12.88,12.88,30.35,20.12,48.56,20.12h26.82c12.64,0,22.88,10.25,22.88,22.88v137.31ZM118.69,164.46c-25.28,0-45.77,20.49-45.77,45.77v137.31c0,25.28,20.49,45.77,45.77,45.77h274.62c25.28,0,45.77-20.49,45.77-45.77v-137.31c0-25.28-20.49-45.77-45.77-45.77h-26.82c-12.14,0-23.78-4.83-32.36-13.41l-18.95-18.95c-8.58-8.58-20.22-13.41-32.36-13.41h-53.64c-12.14,0-23.78,4.83-32.36,13.41l-18.95,18.95c-8.58,8.58-20.22,13.41-32.36,13.41h-26.82Z"/><path class="b" d="m256,324.65c-31.6,0-57.21-25.61-57.21-57.21s25.61-57.21,57.21-57.21,57.21,25.61,57.21,57.21-25.61,57.21-57.21,57.21Zm0,22.88c44.24,0,80.1-35.86,80.1-80.1s-35.86-80.1-80.1-80.1-80.1,35.86-80.1,80.1,35.86,80.1,80.1,80.1Zm-114.42-125.87c0,6.32-5.12,11.44-11.44,11.44s-11.44-5.12-11.44-11.44,5.12-11.44,11.44-11.44,11.44,5.12,11.44,11.44Z"/></svg>